<svg width="124" height="187" viewBox="0 0 124 187" fill="none" xmlns="http://www.w3.org/2000/svg">
<path d="M93 25.8333C93 11.566 104.566 0 118.833 0V0C121.687 0 124 2.3132 124 5.16667V123.5C124 132.06 117.06 139 108.5 139V139C99.9396 139 93 132.06 93 123.5V25.8333Z" fill="#13B734"/>
<ellipse cx="61.8803" cy="124.537" rx="61.8803" ry="61.88" fill="#13B734"/>
<ellipse cx="62.4736" cy="124.58" rx="36.4736" ry="36.5804" fill="#F2F2F2"/>
<path d="M55.5342 121.799C55.1886 121.799 54.8507 121.899 54.5634 122.086C54.276 122.273 54.052 122.538 53.9197 122.849C53.7875 123.159 53.7529 123.501 53.8203 123.831C53.8877 124.161 54.0541 124.464 54.2985 124.701C54.5429 124.939 54.8543 125.101 55.1933 125.167C55.5323 125.232 55.8837 125.198 56.203 125.07C56.5223 124.941 56.7952 124.723 56.9872 124.444C57.1793 124.164 57.2818 123.835 57.2818 123.499C57.2818 123.048 57.0976 122.616 56.7699 122.297C56.4422 121.978 55.9977 121.799 55.5342 121.799ZM62.5244 121.799C62.1787 121.799 61.8409 121.899 61.5535 122.086C61.2661 122.273 61.0421 122.538 60.9099 122.849C60.7776 123.159 60.743 123.501 60.8104 123.831C60.8778 124.161 61.0443 124.464 61.2887 124.701C61.5331 124.939 61.8445 125.101 62.1834 125.167C62.5224 125.232 62.8738 125.198 63.1931 125.07C63.5124 124.941 63.7854 124.723 63.9774 124.444C64.1694 124.164 64.2719 123.835 64.2719 123.499C64.2719 123.048 64.0878 122.616 63.7601 122.297C63.4323 121.978 62.9878 121.799 62.5244 121.799ZM69.5145 121.799C69.1689 121.799 68.831 121.899 68.5436 122.086C68.2563 122.273 68.0323 122.538 67.9 122.849C67.7677 123.159 67.7331 123.501 67.8006 123.831C67.868 124.161 68.0344 124.464 68.2788 124.701C68.5232 124.939 68.8346 125.101 69.1736 125.167C69.5126 125.232 69.864 125.198 70.1833 125.07C70.5026 124.941 70.7755 124.723 70.9675 124.444C71.1596 124.164 71.262 123.835 71.262 123.499C71.262 123.048 71.0779 122.616 70.7502 122.297C70.4225 121.978 69.978 121.799 69.5145 121.799ZM62.5244 106.5C60.2295 106.5 57.957 106.94 55.8368 107.794C53.7167 108.648 51.7901 109.9 50.1674 111.479C46.8902 114.667 45.049 118.991 45.049 123.499C45.0337 127.425 46.4154 131.231 48.9828 134.26L45.5 137C43 139 44.5 138 43 139C40.5 140.498 40.8184 140.59 38.9999 141.5C38.7904 141.605 43.5 141 44.5 141C46.0001 141 47 141 47 141L62.5244 140.498C67.1591 140.498 71.6041 138.708 74.8813 135.52C78.1585 132.332 79.9997 128.008 79.9997 123.499C79.9997 118.991 78.1585 114.667 74.8813 111.479C71.6041 108.291 67.1591 106.5 62.5244 106.5ZM62.5244 137.099H51.0081L52.6333 135.518C52.7984 135.36 52.9298 135.173 53.0198 134.965C53.1098 134.758 53.1566 134.536 53.1576 134.311C53.151 133.862 52.9626 133.435 52.6333 133.121C50.3451 130.897 48.9201 127.971 48.6012 124.84C48.2823 121.709 49.0892 118.568 50.8844 115.951C52.6796 113.334 55.3522 111.403 58.4465 110.488C61.5409 109.573 64.8659 109.73 67.8547 110.932C70.8436 112.134 73.3116 114.307 74.8382 117.08C76.3648 119.854 76.8557 123.056 76.227 126.143C75.5983 129.229 73.8891 132.007 71.3906 134.005C68.892 136.003 65.7586 137.096 62.5244 137.099Z" fill="#13B734"/>
</svg>
